<svg width="60" height="60" viewBox="0 0 60 60" fill="none" xmlns="http://www.w3.org/2000/svg">
<rect width="60" height="60" rx="10" fill="white"/>
<rect x="0.5" y="0.5" width="59" height="59" rx="9.5" stroke="#919EAB" stroke-opacity="0.3"/>
<path d="M15 22.197C15 18.2222 18.12 15 21.9687 15H37.0798C40.9285 15 44.0485 18.2222 44.0485 22.197V45H27.5437C20.616 45 15 39.2001 15 32.0455V22.197Z" fill="#680A83"/>
<path d="M36.1164 28.6697L36.0875 28.6988C35.7554 24.7477 32.4708 21.6431 28.4642 21.6431C24.2363 21.6431 20.8097 25.097 20.8097 29.3586C20.8097 33.3485 23.8176 36.6326 27.6701 37.0304L27.6292 37.0716H38.2388L36.1164 28.6697Z" fill="white"/>
<path d="M32.09 29.5714C32.09 31.82 30.282 33.6429 28.0516 33.6429C25.8212 33.6429 24.0132 31.82 24.0132 29.5714C24.0132 27.3228 25.8212 25.5 28.0516 25.5C30.282 25.5 32.09 27.3228 32.09 29.5714Z" fill="#680A83"/>
</svg>
